<svg width="91" height="91" viewBox="0 0 91 91" xmlns="http://www.w3.org/2000/svg"><title>extensive_product_range</title><g fill="none" fill-rule="evenodd"><g transform="translate(0 60)"><path d="M88.763 12.618l-32.64 17.133c-2.363 1.181-5.17 1.477-7.828.59l-18.757-6.35h-6.35V3.46h7.827c2.068 0 3.988.444 5.908 1.33l10.634 5.021H61.44c1.477 0 2.658 1.33 2.658 2.806 0 1.477-1.181 2.807-2.806 2.807H44.898c-1.476.295-4.283 1.624-4.283 4.578h2.216c0-1.625 2.067-2.215 2.51-2.363h16.247c.886 0 1.624-.295 2.215-.59L86.548 7.005a3.262 3.262 0 0 1 2.363 0c.738.296 1.329.886 1.624 1.625.591 1.477-.147 3.249-1.772 3.987z" fill="#FFF"/><path fill="#DEDEDE" d="M0 0h24v30H0z"/><circle fill="#C2C2C2" cx="18" cy="24" r="3"/><circle fill="#C2C2C2" cx="9" cy="24" r="3"/></g><g transform="translate(9)"><path d="M43.005 36.874c-6.167-2.24-13.033.938-15.274 7.12-2.24 6.183.954 13.034 7.12 15.275 6.168 2.24 13.034-.938 15.275-7.12 2.24-6.183-.954-13.034-7.12-15.275z" fill="#E98024" fill-rule="nonzero"/><path d="M42.068 53.086c-.382.27-.827.445-1.288.525-.46.095-.938.095-1.446.031a6.88 6.88 0 0 1-1.081-.222l-.715 1.987-1.145-.414.716-1.986-1.16-.43-.716 1.987-1.144-.413.715-1.987-2.48-.906.43-1.192.365.096c.127.047.302.08.54.143.303.08.414.063.446.08.127 0 .174-.033.174-.033a.421.421 0 0 0 .096-.175l2.384-6.564c.032-.095.032-.159.032-.222 0-.016-.032-.064-.112-.143-.11-.112-.254-.191-.381-.286-.175-.096-.318-.16-.413-.223l-.35-.159.43-1.192 2.415.874.715-1.955 1.145.414-.684 1.986 1.16.43.716-1.987 1.144.413-.731 2.003c.238.095.461.222.668.333.365.223.683.477.985.78.286.301.493.65.62 1.048.127.413.111.858-.048 1.303-.143.382-.35.7-.636.954-.27.239-.604.413-.97.525a4.798 4.798 0 0 1-.746.143c.27.222.508.445.715.699.286.334.493.715.62 1.16.127.445.095.938-.08 1.43-.206.462-.492.859-.905 1.145zm-1.749-2.193a1.764 1.764 0 0 0-1.049-2.241l-1.669-.604-1.192 3.29 1.67.604a1.75 1.75 0 0 0 2.24-1.05zm1.017-4.53c.27-.747-.127-1.605-.874-1.891l-1.367-.493-1.001 2.765 1.367.493c.763.27 1.605-.111 1.875-.874z" fill="#FFF"/><circle fill="#E98024" cx="39" cy="12" r="12"/><path d="M40.148 10.779c-1.72-.574-2.427-.976-2.427-1.567 0-.592.42-1.045 1.726-1.045 1.007-.002 2 .218 2.897.643l.626-2.083a7.817 7.817 0 0 0-2.934-.602V4.5H38.04v1.722c-2.146.368-3.384 1.636-3.384 3.278 0 1.791 1.457 2.71 3.61 3.375 1.508.46 2.15.902 2.15 1.602 0 .7-.781 1.148-1.95 1.148a7.617 7.617 0 0 1-3.34-.792l-.626 2.153a9.001 9.001 0 0 0 3.415.792V19.5h1.982v-1.866c2.352-.35 3.603-1.75 3.603-3.375s-.963-2.704-3.352-3.48z" fill="#FFF" fill-rule="nonzero"/><circle fill="#E98024" cx="66" cy="30" r="12"/><path d="M71.406 38H60.594V23h10.84v15h-.028zm-9.963-.832h9.142V23.832h-9.142v13.336zM60 23h12v.832H60V23zm0 14.168h12V38H60v-.832zm0-11.007h12v.832H60v-.832zm0 7.597h12v.832H60v-.832zm5.972-4.658s-.99.832-1.104 1.608c0 .083-.028.166-.028.222a1.124 1.124 0 0 0 1.132 1.107H66a1.124 1.124 0 0 0 1.132-1.109.53.53 0 0 0-.028-.222c-.113-.774-1.132-1.606-1.132-1.606z" stroke="#FFF" stroke-width=".5" fill="#FFF" fill-rule="nonzero"/><circle fill="#E98024" cx="12" cy="30" r="12"/><path d="M19.783 31.34h-1.869l-.802-2.67h-1.87L14.438 26h-4.137l-.8 2.67h-1.87l-.802 2.67H4.962L4 34.545h16.744l-.961-3.205zm-3.068-2.135l.642 2.135H12.73l.642-2.135h3.342zm-4.341 1.473l-.444-1.473h.884l-.44 1.473zM10.7 26.531h3.34l.643 2.136H10.06l.64-2.136zM8.03 29.205h3.342l.643 2.135H7.387l.642-2.135zm-3.312 4.809l.642-2.136h3.342l.642 2.136H4.717zm4.542-2.14h.883l-.44 1.473-.443-1.473zm.802 2.139l.642-2.136h3.342l.642 2.136H10.06zm4.541-2.14h.884l-.444 1.474-.44-1.473zm1.441 0h3.342l.642 2.136h-4.626l.642-2.135z" stroke="#FFF" stroke-width=".5" fill="#FFF" fill-rule="nonzero"/></g></g></svg>