<svg width="81" height="96" viewBox="0 0 81 96" xmlns="http://www.w3.org/2000/svg"><title>global_presence</title><g fill-rule="nonzero" fill="none"><path d="M67.92 74.033c-.6-1.049-2.022-1.423-3.07-.824-19.246 11.08-43.884 4.567-54.967-14.45C-1.125 39.742 5.54 15.26 24.785 4.18c1.049-.599 1.423-2.021.824-3.07-.6-1.048-2.022-1.422-3.07-.823C1.12 12.639-6.293 39.892 5.989 61.006c7.638 13.176 21.043 20.888 35.271 21.936v6.14H32.65a3.356 3.356 0 0 0-3.37 3.368 3.356 3.356 0 0 0 3.37 3.37h21.716a3.356 3.356 0 0 0 3.37-3.37 3.356 3.356 0 0 0-3.37-3.369h-9.21.599v-5.99c7.264-.15 14.602-2.096 21.342-5.989 1.048-.674 1.423-2.021.824-3.07z" fill="#E98024"/><path d="M45.005 2.981c19.844 0 35.945 16.097 35.945 35.938 0 19.84-16.1 35.937-35.945 35.937S9.059 58.759 9.059 38.919c0-19.841 16.1-35.938 35.946-35.938z" fill="#FFF"/><path d="M71.814 62.877c2.471-9.583 4.718-23.434-2.396-21.862-6.815 1.497-15.277 3.145-19.321 3.743-4.044.6-8.912-3.444-14.378-6.364-.749-3.07-.824-4.716 3.445-7.86 4.343-3.22 6.365 3.069 8.087 1.197 2.846-3.444.899-6.663 4.568-14.15 3.67-7.338 4.044-6.214 6.665-11.98-4.119-1.647-8.686-2.62-13.48-2.62-13.928 0-25.985 7.936-31.976 19.466.974 2.022 2.322 4.118 4.194 6.44 5.766 6.962 11.832 9.807 21.343 15.647 9.51 5.765 8.087 8.385 5.766 11.006-2.322 2.62-5.916 13.85.898 17.37l3.07 1.871c9.286-.898 17.599-5.315 23.515-11.904z" fill="#F2F2F2"/></g></svg>