<svg width="60" height="96" viewBox="0 0 60 96" xmlns="http://www.w3.org/2000/svg" xmlns:xlink="http://www.w3.org/1999/xlink"><title>licensed_and_regulated</title><defs><path d="M24 82.395A11.995 11.995 0 0 1 18 72c0-6.627 5.373-12 12-12s12 5.373 12 12c0 4.442-2.413 8.32-6 10.395V96l-6-6-6 6V82.395zM30 78a6 6 0 1 0 0-12 6 6 0 0 0 0 12z" id="a"/></defs><g fill="none" fill-rule="evenodd"><path d="M3 0h37.754a3 3 0 0 1 2.12.878l16.247 16.243A3 3 0 0 1 60 19.243V78a3 3 0 0 1-3 3H3a3 3 0 0 1-3-3V3a3 3 0 0 1 3-3z" fill="#FFF"/><path d="M10.5 24h39a1.5 1.5 0 0 1 0 3h-39a1.5 1.5 0 0 1 0-3zm0-9h24a1.5 1.5 0 0 1 0 3h-24a1.5 1.5 0 0 1 0-3zm0 18h39a1.5 1.5 0 0 1 0 3h-39a1.5 1.5 0 0 1 0-3zm0 9h39a1.5 1.5 0 0 1 0 3h-39a1.5 1.5 0 0 1 0-3zm0 9h39a1.5 1.5 0 0 1 0 3h-39a1.5 1.5 0 0 1 0-3zM42 0l18 18H45a3 3 0 0 1-3-3V0z" fill="#DEDEDE"/><g><use fill="#E98024" xlink:href="#a"/><path stroke="#E98024" stroke-width="3" d="M25.5 92.379l4.5-4.5 4.5 4.5v-10.85l.749-.433A10.494 10.494 0 0 0 40.5 72c0-5.799-4.701-10.5-10.5-10.5S19.5 66.201 19.5 72c0 3.793 2.027 7.231 5.251 9.096l.749.433v10.85zM30 79.5a7.5 7.5 0 1 1 0-15 7.5 7.5 0 0 1 0 15z"/></g></g></svg>